<?xml version="1.0" encoding="UTF-8"?>
<svg xmlns="http://www.w3.org/2000/svg" xmlns:xlink="http://www.w3.org/1999/xlink" width="48px" height="48px" viewBox="0 0 48 48" version="1.1">
<g id="surface1">
<path style=" stroke:none;fill-rule:nonzero;fill:rgb(99.215686%,84.705882%,20.784314%);fill-opacity:1;" d="M 18.304688 10.816406 C 20.839844 6.273438 22.105469 4 24 4 C 25.894531 4 27.160156 6.273438 29.695312 10.816406 L 30.347656 11.992188 C 31.070312 13.285156 31.429688 13.929688 31.988281 14.355469 C 32.550781 14.78125 33.25 14.941406 34.648438 15.257812 L 35.921875 15.542969 C 40.839844 16.65625 43.300781 17.214844 43.886719 19.09375 C 44.46875 20.976562 42.792969 22.9375 39.441406 26.859375 L 38.570312 27.875 C 37.621094 28.988281 37.144531 29.546875 36.929688 30.234375 C 36.714844 30.925781 36.785156 31.667969 36.929688 33.15625 L 37.0625 34.507812 C 37.566406 39.742188 37.820312 42.355469 36.289062 43.519531 C 34.757812 44.683594 32.453125 43.621094 27.847656 41.503906 L 26.65625 40.953125 C 25.347656 40.351562 24.695312 40.050781 24 40.050781 C 23.304688 40.050781 22.652344 40.351562 21.34375 40.953125 L 20.152344 41.503906 C 15.546875 43.621094 13.242188 44.683594 11.710938 43.519531 C 10.179688 42.355469 10.433594 39.742188 10.9375 34.507812 L 11.070312 33.15625 C 11.214844 31.667969 11.285156 30.925781 11.070312 30.234375 C 10.855469 29.546875 10.382812 28.988281 9.429688 27.875 L 8.558594 26.859375 C 5.207031 22.9375 3.53125 20.976562 4.113281 19.09375 C 4.699219 17.214844 7.160156 16.65625 12.078125 15.542969 L 13.351562 15.257812 C 14.75 14.941406 15.449219 14.78125 16.011719 14.355469 C 16.570312 13.929688 16.929688 13.285156 17.652344 11.992188 Z M 18.304688 10.816406 "/>
</g>
</svg>
